<svg width="929" height="292" viewBox="0 0 929 292" fill="none" xmlns="http://www.w3.org/2000/svg">
<mask id="path-1-inside-1_1183_254" fill="white">
<path fill-rule="evenodd" clip-rule="evenodd" d="M58.553 20.8571L47.9847 0L37.4163 20.8571H10.1211C4.59825 20.8571 0.121094 25.3343 0.121094 30.8572V282C0.121094 287.523 4.59825 292 10.1211 292H919C924.523 292 929 287.523 929 282V30.8571C929 25.3343 924.523 20.8571 919 20.8571H58.553Z"/>
</mask>
<path fill-rule="evenodd" clip-rule="evenodd" d="M58.553 20.8571L47.9847 0L37.4163 20.8571H10.1211C4.59825 20.8571 0.121094 25.3343 0.121094 30.8572V282C0.121094 287.523 4.59825 292 10.1211 292H919C924.523 292 929 287.523 929 282V30.8571C929 25.3343 924.523 20.8571 919 20.8571H58.553Z" fill="white"/>
<path d="M47.9847 0L50.6607 -1.35597L47.9847 -6.63732L45.3086 -1.35597L47.9847 0ZM58.553 20.8571L55.877 22.2131L56.71 23.8571H58.553V20.8571ZM37.4163 20.8571V23.8571H39.2593L40.0924 22.2131L37.4163 20.8571ZM45.3086 1.35597L55.877 22.2131L61.2291 19.5012L50.6607 -1.35597L45.3086 1.35597ZM40.0924 22.2131L50.6607 1.35597L45.3086 -1.35597L34.7402 19.5012L40.0924 22.2131ZM10.1211 23.8571H37.4163V17.8571H10.1211V23.8571ZM3.12109 30.8572C3.12109 26.9912 6.25511 23.8571 10.1211 23.8571V17.8571C2.94139 17.8571 -2.87891 23.6775 -2.87891 30.8572H3.12109ZM3.12109 282V30.8572H-2.87891V282H3.12109ZM10.1211 289C6.2551 289 3.12109 285.866 3.12109 282H-2.87891C-2.87891 289.18 2.9414 295 10.1211 295V289ZM919 289H10.1211V295H919V289ZM926 282C926 285.866 922.866 289 919 289V295C926.179 295 932 289.18 932 282H926ZM926 30.8571V282H932V30.8571H926ZM919 23.8571C922.866 23.8571 926 26.9912 926 30.8571H932C932 23.6774 926.179 17.8571 919 17.8571V23.8571ZM58.553 23.8571H919V17.8571H58.553V23.8571Z" fill="#D9D9D9" mask="url(#path-1-inside-1_1183_254)"/>
</svg>
