<svg width="929" height="160" viewBox="0 0 929 160" fill="none" xmlns="http://www.w3.org/2000/svg">
<mask id="path-1-inside-1_1183_240" fill="white">
<path fill-rule="evenodd" clip-rule="evenodd" d="M58.3342 17L47.9847 0L37.6352 17H10C4.47715 17 0 21.4772 0 27V150C0 155.523 4.47713 160 9.99998 160H919C924.523 160 929 155.523 929 150V27C929 21.4772 924.523 17 919 17H58.3342Z"/>
</mask>
<path fill-rule="evenodd" clip-rule="evenodd" d="M58.3342 17L47.9847 0L37.6352 17H10C4.47715 17 0 21.4772 0 27V150C0 155.523 4.47713 160 9.99998 160H919C924.523 160 929 155.523 929 150V27C929 21.4772 924.523 17 919 17H58.3342Z" fill="white"/>
<path d="M47.9847 0L50.5471 -1.56003L47.9847 -5.76913L45.4222 -1.56003L47.9847 0ZM58.3342 17L55.7717 18.56L56.6483 20H58.3342V17ZM37.6352 17V20H39.321L40.1976 18.56L37.6352 17ZM45.4222 1.56003L55.7717 18.56L60.8967 15.44L50.5471 -1.56003L45.4222 1.56003ZM40.1976 18.56L50.5471 1.56003L45.4222 -1.56003L35.0727 15.44L40.1976 18.56ZM10 20H37.6352V14H10V20ZM3 27C3 23.134 6.13401 20 10 20V14C2.8203 14 -3 19.8203 -3 27H3ZM3 150V27H-3V150H3ZM9.99998 157C6.134 157 3 153.866 3 150H-3C-3 157.18 2.82027 163 9.99998 163V157ZM919 157H9.99998V163H919V157ZM926 150C926 153.866 922.866 157 919 157V163C926.18 163 932 157.18 932 150H926ZM926 27V150H932V27H926ZM919 20C922.866 20 926 23.134 926 27H932C932 19.8203 926.18 14 919 14V20ZM58.3342 20H919V14H58.3342V20Z" fill="#D9D9D9" mask="url(#path-1-inside-1_1183_240)"/>
</svg>
