<svg width="929" height="224" viewBox="0 0 929 224" fill="none" xmlns="http://www.w3.org/2000/svg">
<mask id="path-1-inside-1_1183_254" fill="white">
<path fill-rule="evenodd" clip-rule="evenodd" d="M58.553 16L47.9847 0L37.4163 16H10.1211C4.59825 16 0.121094 20.4772 0.121094 26V214C0.121094 219.523 4.59825 224 10.1211 224H919C924.523 224 929 219.523 929 214V26C929 20.4772 924.523 16 919 16H58.553Z"/>
</mask>
<path fill-rule="evenodd" clip-rule="evenodd" d="M58.553 16L47.9847 0L37.4163 16H10.1211C4.59825 16 0.121094 20.4772 0.121094 26V214C0.121094 219.523 4.59825 224 10.1211 224H919C924.523 224 929 219.523 929 214V26C929 20.4772 924.523 16 919 16H58.553Z" fill="white"/>
<path d="M47.9847 0L50.4879 -1.65344L47.9847 -5.44321L45.4814 -1.65344L47.9847 0ZM58.553 16L56.0498 17.6534L56.9392 19H58.553V16ZM37.4163 16V19H39.0301L39.9195 17.6534L37.4163 16ZM45.4814 1.65344L56.0498 17.6534L61.0563 14.3466L50.4879 -1.65344L45.4814 1.65344ZM39.9195 17.6534L50.4879 1.65344L45.4814 -1.65344L34.9131 14.3466L39.9195 17.6534ZM10.1211 19H37.4163V13H10.1211V19ZM3.12109 26C3.12109 22.134 6.2551 19 10.1211 19V13C2.94139 13 -2.87891 18.8203 -2.87891 26H3.12109ZM3.12109 214V26H-2.87891V214H3.12109ZM10.1211 221C6.2551 221 3.12109 217.866 3.12109 214H-2.87891C-2.87891 221.18 2.94139 227 10.1211 227V221ZM919 221H10.1211V227H919V221ZM926 214C926 217.866 922.866 221 919 221V227C926.179 227 932 221.18 932 214H926ZM926 26V214H932V26H926ZM919 19C922.866 19 926 22.134 926 26H932C932 18.8203 926.179 13 919 13V19ZM58.553 19H919V13H58.553V19Z" fill="#D9D9D9" mask="url(#path-1-inside-1_1183_254)"/>
</svg>
