<svg width="929" height="277" viewBox="0 0 929 277" fill="none" xmlns="http://www.w3.org/2000/svg">
<mask id="path-1-inside-1_1183_268" fill="white">
<path fill-rule="evenodd" clip-rule="evenodd" d="M58.504 17.7881L47.9847 0L37.4653 17.7881H10.1211C4.59825 17.7881 0.121094 22.2652 0.121094 27.7881V266.999C0.121094 272.522 4.59825 276.999 10.1211 276.999H919C924.523 276.999 929 272.522 929 266.999V27.7881C929 22.2652 924.523 17.7881 919 17.7881H58.504Z"/>
</mask>
<path fill-rule="evenodd" clip-rule="evenodd" d="M58.504 17.7881L47.9847 0L37.4653 17.7881H10.1211C4.59825 17.7881 0.121094 22.2652 0.121094 27.7881V266.999C0.121094 272.522 4.59825 276.999 10.1211 276.999H919C924.523 276.999 929 272.522 929 266.999V27.7881C929 22.2652 924.523 17.7881 919 17.7881H58.504Z" fill="white"/>
<path d="M47.9847 0L50.5669 -1.52707L47.9847 -5.89364L45.4024 -1.52707L47.9847 0ZM58.504 17.7881L55.9217 19.3151L56.7928 20.7881H58.504V17.7881ZM37.4653 17.7881V20.7881H39.1765L40.0476 19.3151L37.4653 17.7881ZM45.4024 1.52707L55.9217 19.3151L61.0863 16.261L50.5669 -1.52707L45.4024 1.52707ZM40.0476 19.3151L50.5669 1.52707L45.4024 -1.52707L34.8831 16.261L40.0476 19.3151ZM10.1211 20.7881H37.4653V14.7881H10.1211V20.7881ZM3.12109 27.7881C3.12109 23.9221 6.2551 20.7881 10.1211 20.7881V14.7881C2.9414 14.7881 -2.87891 20.6084 -2.87891 27.7881H3.12109ZM3.12109 266.999V27.7881H-2.87891V266.999H3.12109ZM10.1211 273.999C6.2551 273.999 3.12109 270.865 3.12109 266.999H-2.87891C-2.87891 274.179 2.9414 279.999 10.1211 279.999V273.999ZM919 273.999H10.1211V279.999H919V273.999ZM926 266.999C926 270.865 922.866 273.999 919 273.999V279.999C926.179 279.999 932 274.179 932 266.999H926ZM926 27.7881V266.999H932V27.7881H926ZM919 20.7881C922.866 20.7881 926 23.9221 926 27.7881H932C932 20.6084 926.179 14.7881 919 14.7881V20.7881ZM58.504 20.7881H919V14.7881H58.504V20.7881Z" fill="#D9D9D9" mask="url(#path-1-inside-1_1183_268)"/>
</svg>
