<svg width="156" height="48" viewBox="0 0 156 48" fill="none" xmlns="http://www.w3.org/2000/svg">
<rect x="156" y="48" width="156" height="48" transform="rotate(-180 156 48)" fill="#EE5A2E"/>
<path d="M28.2407 32.7593C27.6578 32.7593 27.1588 32.5517 26.7437 32.1366C26.3286 31.7216 26.1211 31.2226 26.1211 30.6397V17.9223C26.1211 17.3394 26.3286 16.8404 26.7437 16.4254C27.1588 16.0103 27.6578 15.8027 28.2407 15.8027H45.1972C45.7801 15.8027 46.279 16.0103 46.6941 16.4254C47.1092 16.8404 47.3167 17.3394 47.3167 17.9223V30.6397C47.3167 31.2226 47.1092 31.7216 46.6941 32.1366C46.279 32.5517 45.7801 32.7593 45.1972 32.7593H28.2407ZM36.7189 25.3408L28.2407 20.0419V30.6397H45.1972V20.0419L36.7189 25.3408ZM36.7189 23.2212L45.1972 17.9223H28.2407L36.7189 23.2212ZM28.2407 20.0419V17.9223V30.6397V20.0419Z" fill="white"/>
<path d="M59.7441 19.444C59.6921 19.691 59.6401 20.25 59.6271 20.575C59.5621 21.602 59.5231 23.006 59.5231 24.215C59.5231 25.632 59.6011 27.881 59.6011 28.635C59.6011 30.234 59.0291 30.676 58.1711 30.676C56.9101 30.676 55.1161 29.584 55.1161 28.206C55.1161 26.945 56.7411 25.619 58.5481 24.982C59.7051 24.566 61.0181 24.358 62.0061 24.358C64.0081 24.358 65.5941 25.398 65.5941 27.192C65.5941 28.739 64.7881 29.896 62.7211 30.403C62.1231 30.533 61.5381 30.572 61.0051 30.624L60.4201 28.934C60.9921 28.934 61.5641 28.934 62.0061 28.843C63.0591 28.661 63.9041 28.128 63.9041 27.192C63.9041 26.295 63.1241 25.788 61.9931 25.788C60.8881 25.788 59.7441 26.022 58.7301 26.425C57.5601 26.867 56.7281 27.569 56.7281 28.128C56.7281 28.544 57.3391 28.895 57.6771 28.895C57.9111 28.895 58.0801 28.791 58.0801 28.336C58.0801 27.66 58.0151 25.853 58.0151 24.28C58.0151 22.798 58.0281 21.186 58.0281 20.588C58.0281 20.328 57.9891 19.678 57.9501 19.444H59.7441ZM63.4491 20.861C64.4371 21.342 65.9451 22.187 66.6471 22.681L65.8541 24.007C65.2301 23.487 63.5401 22.512 62.7341 22.122L63.4491 20.861ZM55.4671 21.576C56.2341 21.667 56.7931 21.667 57.2611 21.667C58.6131 21.667 60.6411 21.42 61.9801 21.03L62.0191 22.642C60.5501 22.98 58.4571 23.214 57.3131 23.214C56.4551 23.214 55.9481 23.201 55.5061 23.149L55.4671 21.576ZM71.6651 25.229H76.0591V29.324H71.6651V28.05H74.6031V26.503H71.6651V25.229ZM71.0021 25.229H72.4451V30.065H71.0021V25.229ZM68.8701 21.342H72.1331V22.408H68.8701V21.342ZM74.9021 21.342H78.1911V22.408H74.9021V21.342ZM77.5411 19.457H79.1141V29.298C79.1141 30.182 78.9321 30.624 78.3991 30.884C77.8531 31.144 77.0341 31.17 75.8381 31.17C75.7861 30.728 75.5261 29.987 75.3051 29.584C76.0591 29.623 76.9561 29.61 77.2031 29.61C77.4501 29.61 77.5411 29.519 77.5411 29.285V19.457ZM69.0001 19.457H73.1081V24.332H69.0001V23.136H71.6521V20.653H69.0001V19.457ZM78.3861 19.457V20.64H75.4741V23.162H78.3861V24.345H73.9921V19.457H78.3861ZM68.1031 19.457H69.6501V31.17H68.1031V19.457ZM83.4431 20.718C83.3521 21.173 83.2871 21.94 83.2871 22.304C83.2871 23.149 83.2871 24.111 83.3651 25.06C83.5471 26.932 83.9371 28.219 84.7561 28.219C85.3801 28.219 85.8871 26.685 86.1341 25.658L87.4471 27.231C86.5761 29.506 85.7701 30.286 84.7301 30.286C83.2871 30.286 82.0521 29.012 81.6881 25.528C81.5581 24.332 81.5451 22.798 81.5451 22.005C81.5451 21.654 81.5321 21.095 81.4411 20.692L83.4431 20.718ZM89.9431 21.004C91.1781 22.499 92.1791 25.749 92.3221 27.738L90.6061 28.414C90.4111 26.308 89.7091 23.162 88.2921 21.55L89.9431 21.004ZM96.3261 23.162H102.852V24.527H96.3261V23.162ZM96.1701 29.337H102.878V30.702H96.1701V29.337ZM95.4811 25.827H103.762V31.196H102.163V27.205H97.0151V31.196H95.4811V25.827ZM99.5241 20.51C98.4581 22.031 96.4561 23.747 94.3111 24.891C94.1031 24.527 93.6741 23.955 93.3361 23.63C95.5851 22.538 97.6781 20.575 98.6401 18.976H100.265C101.682 20.978 103.775 22.629 105.868 23.474C105.478 23.864 105.114 24.397 104.841 24.878C102.839 23.825 100.655 22.057 99.5241 20.51ZM112.719 28.791C114.994 28.44 116.632 27.517 116.632 25.489C116.632 24.475 115.813 23.539 114.513 23.539C112.849 23.539 111.458 24.488 110.184 25.827L110.197 23.994C111.744 22.525 113.395 22.018 114.786 22.018C116.775 22.018 118.361 23.435 118.361 25.515C118.361 28.154 116.71 29.714 113.486 30.351L112.719 28.791ZM109.768 23.136C109.183 23.201 107.948 23.37 107.09 23.487L106.921 21.81C107.285 21.823 107.584 21.823 108.052 21.797C108.871 21.758 110.535 21.511 111.12 21.316L111.64 21.992C111.419 22.291 111.016 22.928 110.795 23.266L110.041 25.71C109.469 26.542 108.312 28.284 107.623 29.233L106.609 27.803C107.428 26.789 108.988 24.722 109.638 23.708L109.664 23.37L109.768 23.136ZM109.612 20.627C109.612 20.263 109.625 19.873 109.547 19.47L111.445 19.522C111.224 20.562 110.795 23.968 110.795 26.295C110.795 27.348 110.795 28.453 110.873 29.662C110.886 29.896 110.938 30.377 110.964 30.663H109.183C109.209 30.39 109.222 29.909 109.222 29.701C109.235 28.44 109.248 27.569 109.287 25.944C109.326 24.787 109.612 21.147 109.612 20.627ZM129.021 19.808C128.982 20.016 128.956 20.588 128.943 20.926C128.917 21.81 128.917 22.551 128.891 23.214C128.865 24.371 128.826 25.775 128.696 26.438C128.553 27.127 128.215 27.296 127.552 27.296C127.097 27.296 126.044 27.179 125.602 27.101L125.628 25.671C126.031 25.762 126.577 25.827 126.837 25.827C127.084 25.827 127.201 25.788 127.24 25.528C127.305 25.034 127.331 24.098 127.357 23.201C127.357 22.525 127.357 21.771 127.357 21.004C127.357 20.666 127.305 20.055 127.266 19.808H129.021ZM123.899 20.198C123.847 20.627 123.821 20.991 123.821 21.55C123.821 22.733 123.769 26.165 123.795 27.231C123.834 28.518 123.938 28.804 125.888 28.804C127.162 28.804 128.813 28.648 129.775 28.466L129.71 30.247C128.839 30.338 127.253 30.455 126.005 30.455C122.651 30.455 122.235 29.74 122.183 27.491C122.157 26.373 122.17 22.421 122.17 21.641C122.17 21.095 122.131 20.653 122.066 20.198H123.899ZM119.557 23.136C119.921 23.136 120.519 23.11 121.182 23.032C122.495 22.915 127.383 22.434 129.892 22.278C130.243 22.252 130.75 22.213 131.14 22.187V23.773C130.906 23.76 130.217 23.786 129.879 23.786C127.851 23.851 122.794 24.397 121.286 24.566C120.883 24.618 120.077 24.735 119.726 24.787L119.557 23.136Z" fill="white"/>
</svg>
